<svg xmlns="http://www.w3.org/2000/svg" viewBox="0 0 428.91 418.32"><defs><style>.cls-1,.cls-2{fill:#fff;}.cls-1{fill-rule:evenodd;}</style></defs><title>Asset 1</title><g id="Layer_2" data-name="Layer 2"><g id="Layer_1-2" data-name="Layer 1"><path class="cls-1" d="M214.46,0C96,0,0,96,0,214.46,0,309.21,61.45,389.59,146.66,418c10.71,2,14.65-4.65,14.65-10.32,0-5.11-.2-22-.29-39.92-59.66,13-72.25-25.31-72.25-25.31C79,317.62,65,311,65,311c-19.46-13.31,1.46-13,1.46-13C88,299.5,99.3,320.09,99.3,320.09c19.12,32.78,50.17,23.31,62.41,17.83,1.92-13.86,7.48-23.33,13.61-28.68-47.63-5.42-97.71-23.81-97.71-106,0-23.41,8.38-42.54,22.1-57.56-2.23-5.4-9.57-27.21,2.08-56.75,0,0,18-5.77,59,22a203.31,203.31,0,0,1,107.4,0c40.93-27.75,58.91-22,58.91-22,11.68,29.54,4.34,51.35,2.11,56.75,13.75,15,22.07,34.15,22.07,57.56,0,82.37-50.17,100.51-97.92,105.82,7.69,6.65,14.54,19.7,14.54,39.71,0,28.7-.24,51.79-.24,58.85,0,5.71,3.86,12.4,14.72,10.29A214.47,214.47,0,0,0,428.91,214.46C428.91,96,332.89,0,214.46,0Z"/><path class="cls-2" d="M81.23,307.91c-.48,1.07-2.15,1.39-3.68.65s-2.43-2.15-1.92-3.22,2.13-1.4,3.69-.67,2.44,2.17,1.91,3.24Z"/><path class="cls-2" d="M89.91,317.6c-1,.95-3,.51-4.38-1s-1.66-3.5-.62-4.46,3-.5,4.39,1,1.68,3.5.61,4.46Z"/><path class="cls-2" d="M98.37,330c-1.32.91-3.47.06-4.79-1.85s-1.32-4.2,0-5.11,3.44-.09,4.79,1.8,1.31,4.23,0,5.16Z"/><path class="cls-2" d="M110,341.88c-1.17,1.3-3.68.95-5.51-.82s-2.4-4.18-1.22-5.48,3.71-.93,5.56.82,2.42,4.2,1.17,5.48Z"/><path class="cls-2" d="M125.93,348.81c-.52,1.68-2.93,2.44-5.36,1.73s-4-2.7-3.52-4.4,2.93-2.48,5.37-1.72,4,2.68,3.51,4.39Z"/><path class="cls-2" d="M143.48,350.1c.06,1.76-2,3.23-4.55,3.26s-4.64-1.37-4.66-3.11,2-3.24,4.57-3.28,4.64,1.37,4.64,3.13Z"/><path class="cls-2" d="M159.82,347.32c.3,1.72-1.47,3.49-4,4s-4.8-.61-5.11-2.32,1.49-3.54,4-4,4.8.59,5.13,2.35Z"/></g></g></svg>